<?xml version="1.0" encoding="UTF-8"?>
<svg id="Layer_1" xmlns="http://www.w3.org/2000/svg" viewBox="0 0 84.69 107.59">
    <defs>
        <style>.cls-1{fill: white;}</style>
    </defs>
    <path class="cls-1" d="M10.46,75.88c0-3.8,.02-7.6-.03-11.4,0-.42,.25-1.19-.44-1.25-.27-.02-.73,.63-.89,1.05-.73,1.92-1.31,3.89-2.1,5.78-.53,1.26-1.2,2.66-2.86,2.63-1.61-.02-2.03-1.5-2.49-2.65-2.86-7.29-1.97-14.22,2.29-20.72,3.41-5.21,7.99-9.3,13.11-12.74,1.28-.86,1.62-1.7,1.65-3.12,.12-5.59-.57-11.22,.95-16.75C22.71,5.58,32.73-.94,45.35,.11c10.94,.91,20.27,10.04,21.08,20.82,.31,4.13,.28,8.29,.27,12.43,0,1.82,.64,2.91,2.17,4,7.23,5.17,13.48,11.21,15.34,20.4,.87,4.3,.62,8.61-1.23,12.69-.5,1.11-1.21,2.18-2.61,2.26-1.51,.08-2.03-1.18-2.53-2.24-.85-1.79-1.55-3.66-2.31-5.49-.36-.86-.55-2.43-1.39-2.23-1.05,.25-.53,1.77-.48,2.7,.47,8.12,.06,16.24,0,24.36-.04,4.8-1.31,9.38-2.88,13.88-.7,2.01-2.04,3.86-4.03,3.89-1.66,.03-2.65-2.03-3.32-3.62-2.09-4.95-4.24-9.81-8.18-13.69-7.76-7.63-18.09-7.63-25.85-.01-3.87,3.8-6.08,8.53-8.07,13.42-.75,1.84-1.65,3.61-3.8,3.76-2.31,.16-2.86-1.96-3.53-3.58-3.43-8.31-3.79-17.08-3.67-25.9,0-.69,0-1.38,0-2.08h.11ZM43.03,29.04s0,.03,0,.05c3.02,0,6.05,.02,9.07,0,2.19-.02,3.36-1.12,3.37-3.36,0-3.45-.01-6.91-.01-10.36,0-2.48-1.46-3.72-3.7-3.75-5.87-.08-11.74,.02-17.61,.11-2.44,.04-3.53,1.45-3.53,3.84,0,3.28,.03,6.56-.03,9.84-.05,2.54,1.27,3.62,3.65,3.64,2.94,.02,5.87,0,8.81,0Z" />
</svg>