<?xml version="1.0" encoding="UTF-8"?>
<svg id="Layer_2" data-name="Layer 2" xmlns="http://www.w3.org/2000/svg" viewBox="0 0 158 160">
  <defs>
    <style>
      .cls-1 {
        fill: #333;
      }
    </style>
  </defs>
  <g id="Layer_1-2" data-name="Layer 1">
    <g>
      <path class="cls-1" d="m83,55V15c0-5.52-4.48-10-10-10H13c-5.52,0-10,4.48-10,10v60c0,5.52,4.48,10,10,10h40c11.05,0,20,8.95,20,20v10c0,22.09,17.91,40,40,40h0c22.09,0,40-17.91,40-40h0c0-22.09-17.91-40-40-40h-10c-11.05,0-20-8.95-20-20Z"/>
      <rect class="cls-1" x="103" y="0" width="55" height="55" rx="27.5" ry="27.5"/>
      <rect class="cls-1" y="105" width="55" height="55" rx="10" ry="10"/>
    </g>
  </g>
</svg>